<svg width="20" height="17" viewBox="0 0 20 17" fill="none" xmlns="http://www.w3.org/2000/svg">
<path d="M19.8879 2.65563C19.1421 2.98551 18.3548 3.19169 17.5262 3.31539C18.3548 2.82057 19.0178 2.0371 19.3078 1.0887C18.5206 1.54228 17.6505 1.87216 16.6975 2.07834C15.9517 1.29487 14.8745 0.800049 13.7143 0.800049C11.4769 0.800049 9.6539 2.6144 9.6539 4.84109C9.6539 5.17097 9.69533 5.45962 9.7782 5.74827C6.42212 5.58333 3.39751 3.97516 1.36729 1.50105C1.03583 2.11957 0.828661 2.77934 0.828661 3.52157C0.828661 4.92356 1.53302 6.16062 2.65171 6.90285C1.98879 6.86162 1.36729 6.69668 0.787228 6.40803V6.44926C0.787228 8.42855 2.19595 10.078 4.06044 10.4491C3.72897 10.5315 3.35608 10.5728 2.98318 10.5728C2.73458 10.5728 2.44455 10.5315 2.19595 10.4903C2.73458 12.0985 4.22617 13.2943 6.00779 13.2943C4.59907 14.3664 2.85888 15.0262 0.95296 15.0262C0.621495 15.0262 0.290031 15.0262 0 14.9849C1.82305 16.1395 3.93614 16.7993 6.25639 16.7993C13.7558 16.7993 17.8576 10.614 17.8576 5.25345C17.8576 5.0885 17.8576 4.88233 17.8576 4.71739C18.6449 4.18133 19.3492 3.48033 19.8879 2.65563Z" fill="#12132D"/>
</svg>
