<svg width="20" height="20" viewBox="0 0 20 20" fill="none" xmlns="http://www.w3.org/2000/svg">
<path d="M16 5.5V8.5M16 8.5V11.5M16 8.5H19M16 8.5H13M10.75 4.375C10.75 5.27011 10.3944 6.12855 9.76149 6.76149C9.12855 7.39442 8.27011 7.75 7.375 7.75C6.47989 7.75 5.62145 7.39442 4.98851 6.76149C4.35558 6.12855 4 5.27011 4 4.375C4 3.47989 4.35558 2.62145 4.98851 1.98851C5.62145 1.35558 6.47989 1 7.375 1C8.27011 1 9.12855 1.35558 9.76149 1.98851C10.3944 2.62145 10.75 3.47989 10.75 4.375ZM1 17.235V17.125C1 15.4342 1.67165 13.8127 2.86719 12.6172C4.06274 11.4216 5.68424 10.75 7.375 10.75C9.06576 10.75 10.6873 11.4216 11.8828 12.6172C13.0784 13.8127 13.75 15.4342 13.75 17.125V17.234C11.8255 18.3931 9.62061 19.0038 7.374 19C5.043 19 2.862 18.355 1 17.234V17.235Z" stroke="#12132D" stroke-opacity="0.6" stroke-width="1.5" stroke-linecap="round" stroke-linejoin="round"/>
</svg>
