<svg width="24" height="23" viewBox="0 0 24 23" fill="none" xmlns="http://www.w3.org/2000/svg">
<path fill-rule="evenodd" clip-rule="evenodd" d="M11.7883 0C5.39696 0 0.255066 5.11733 0.255066 11.4781C0.255066 16.5476 3.57086 20.8519 8.13609 22.3823C8.71275 22.478 8.90497 22.1432 8.90497 21.8084C8.90497 21.5215 8.90497 20.8041 8.90497 19.8476C5.68529 20.565 5.01251 18.3172 5.01251 18.3172C4.48391 16.9781 3.71503 16.6433 3.71503 16.6433C2.65782 15.9259 3.81114 15.9259 3.81114 15.9259C4.96446 16.0216 5.58918 17.1215 5.58918 17.1215C6.59833 18.8911 8.28026 18.365 8.95303 18.0781C9.04914 17.3128 9.33747 16.8346 9.67385 16.5476C7.12694 16.2607 4.43585 15.2563 4.43585 10.8564C4.43585 9.61293 4.86835 8.56077 5.63723 7.79556C5.54112 7.50861 5.10862 6.3608 5.73334 4.73473C5.73334 4.73473 6.69444 4.44777 8.90497 5.93037C9.81802 5.69124 10.8272 5.54776 11.7883 5.54776C12.7494 5.54776 13.7585 5.69124 14.6716 5.93037C16.8821 4.44777 17.8432 4.73473 17.8432 4.73473C18.4679 6.31297 18.0835 7.46078 17.9393 7.79556C18.6601 8.60859 19.1407 9.61293 19.1407 10.8564C19.1407 15.2563 16.4496 16.2129 13.8546 16.4998C14.2871 16.8346 14.6235 17.552 14.6235 18.6041C14.6235 20.1345 14.6235 21.378 14.6235 21.7606C14.6235 22.0476 14.8157 22.4302 15.4405 22.3345C20.0057 20.8519 23.3215 16.5476 23.3215 11.4781C23.3215 5.11733 18.1796 0 11.7883 0Z" fill="#12132D"/>
</svg>
