<svg width="25" height="24" viewBox="0 0 25 24" fill="none" xmlns="http://www.w3.org/2000/svg">
<path d="M12.1981 2.16218C15.4173 2.16218 15.7985 2.17418 17.0702 2.23189C17.8349 2.24121 18.5922 2.38094 19.3094 2.64502C19.8295 2.84463 20.3018 3.15042 20.696 3.54269C21.0901 3.93496 21.3974 4.40502 21.5979 4.92262C21.8633 5.63637 22.0037 6.39011 22.0131 7.15109C22.0705 8.41674 22.0831 8.79615 22.0831 12C22.0831 15.2038 22.071 15.5833 22.0131 16.8489C22.0037 17.6099 21.8633 18.3636 21.5979 19.0774C21.3974 19.595 21.0901 20.065 20.696 20.4573C20.3018 20.8496 19.8295 21.1554 19.3094 21.355C18.5922 21.6191 17.8349 21.7588 17.0702 21.7681C15.7991 21.8252 15.4179 21.8378 12.1981 21.8378C8.97827 21.8378 8.59704 21.8258 7.32588 21.7681C6.56126 21.7588 5.8039 21.6191 5.08672 21.355C4.56664 21.1554 4.09432 20.8496 3.70017 20.4573C3.30601 20.065 2.99876 19.595 2.79819 19.0774C2.53284 18.3636 2.39244 17.6099 2.38308 16.8489C2.32567 15.5833 2.31304 15.2038 2.31304 12C2.31304 8.79615 2.32509 8.41674 2.38308 7.15109C2.39244 6.39011 2.53284 5.63637 2.79819 4.92262C2.99876 4.40502 3.30601 3.93496 3.70017 3.54269C4.09432 3.15042 4.56664 2.84463 5.08672 2.64502C5.8039 2.38094 6.56126 2.24121 7.32588 2.23189C8.59761 2.17475 8.97884 2.16218 12.1981 2.16218ZM12.1981 0C8.92545 0 8.51321 0.0137136 7.22713 0.0719965C6.22643 0.0918058 5.23634 0.280376 4.299 0.629684C3.49491 0.931193 2.76661 1.40368 2.16491 2.01419C1.55092 2.61323 1.07575 3.33847 0.77261 4.13923C0.421625 5.0721 0.23215 6.05745 0.212246 7.05338C0.154832 8.33217 0.141052 8.74244 0.141052 11.9994C0.141052 15.2564 0.154832 15.6667 0.213394 16.9466C0.233299 17.9425 0.422773 18.9279 0.773759 19.8608C1.07657 20.6614 1.55133 21.3867 2.16491 21.9858C2.76694 22.5965 3.49565 23.069 4.30015 23.3703C5.23749 23.7196 6.22758 23.9082 7.22828 23.928C8.51436 23.9851 8.92487 24 12.1992 24C15.4736 24 15.8841 23.9863 17.1701 23.928C18.1709 23.9082 19.1609 23.7196 20.0983 23.3703C20.899 23.0614 21.6261 22.5896 22.2331 21.9851C22.8401 21.3806 23.3137 20.6567 23.6235 19.8596C23.9745 18.9268 24.164 17.9414 24.1839 16.9455C24.2413 15.6667 24.2551 15.2564 24.2551 11.9994C24.2551 8.74244 24.2413 8.33217 24.1827 7.05224C24.1628 6.05631 23.9734 5.07096 23.6224 4.13809C23.3196 3.33743 22.8448 2.6122 22.2312 2.01305C21.6292 1.4024 20.9005 0.929903 20.096 0.628541C19.1586 0.279233 18.1686 0.0906631 17.1679 0.0708538C15.8829 0.0137137 15.4707 0 12.1981 0Z" fill="#12132D"/>
<path d="M12.1959 5.83777C10.9713 5.83777 9.77422 6.19916 8.75602 6.87625C7.73782 7.55334 6.94424 8.51571 6.47561 9.64167C6.00699 10.7676 5.88437 12.0066 6.12327 13.2019C6.36218 14.3972 6.95187 15.4952 7.81777 16.3569C8.68368 17.2187 9.78691 17.8056 10.988 18.0434C12.189 18.2811 13.4339 18.1591 14.5653 17.6927C15.6966 17.2263 16.6636 16.4365 17.344 15.4232C18.0243 14.4098 18.3874 13.2185 18.3874 11.9998C18.3874 10.3655 17.7351 8.79817 16.574 7.64258C15.4128 6.48698 13.838 5.83777 12.1959 5.83777ZM12.1959 15.9996C11.401 15.9996 10.624 15.765 9.96303 15.3255C9.30211 14.886 8.78698 14.2613 8.48279 13.5304C8.1786 12.7996 8.09901 11.9953 8.25409 11.2194C8.40916 10.4436 8.79194 9.73085 9.354 9.17147C9.91607 8.61209 10.6322 8.23114 11.4118 8.07681C12.1914 7.92247 12.9995 8.00168 13.7339 8.30442C14.4683 8.60715 15.0959 9.11982 15.5375 9.77759C15.9792 10.4354 16.2149 11.2087 16.2149 11.9998C16.2149 13.0606 15.7914 14.0779 15.0377 14.8281C14.284 15.5782 13.2618 15.9996 12.1959 15.9996Z" fill="#12132D"/>
<path d="M18.6329 7.03404C19.432 7.03404 20.0798 6.38936 20.0798 5.59411C20.0798 4.79885 19.432 4.15417 18.6329 4.15417C17.8339 4.15417 17.1861 4.79885 17.1861 5.59411C17.1861 6.38936 17.8339 7.03404 18.6329 7.03404Z" fill="#12132D"/>
</svg>
